<?xml version="1.0" encoding="UTF-8" standalone="no"?>
<!-- Created with Inkscape (http://www.inkscape.org/) -->

<svg
   width="136.95776mm"
   height="150.63947mm"
   viewBox="0 0 136.95776 150.63947"
   version="1.1"
   id="svg1"
   xml:space="preserve"
   xmlns="http://www.w3.org/2000/svg"
   xmlns:svg="http://www.w3.org/2000/svg"><defs
     id="defs1" /><g
     id="layer1"
     transform="translate(-28.621259,-48.81433)"><path
       id="path1-8"
       style="fill:#000000"
       d="m 53.674243,48.828544 c -1.53578,0.0612 -1.725618,0.110986 -3.218408,0.842326 -1.04045,0.50974 -1.346167,0.719219 -2.099097,1.440739 -1.00723,0.9652 -1.372818,1.453533 -1.859318,2.484603 -0.33855,0.71752 -0.402303,0.881587 -0.456303,1.166337 -0.04965,0.26185 -0.233154,0.803095 -0.355534,1.048515 -0.0944,0.18939 -0.10592,0.481123 -0.02222,0.564823 0.03216,0.03216 0.315219,-0.120051 0.629419,-0.338481 0.55735,-0.38749 1.784211,-1.023478 2.157491,-1.118278 0.18657,-0.04739 0.674237,-0.213599 1.025777,-0.349849 0.8468,-0.32818 3.013461,-0.436082 3.778581,-0.188102 0.12828,0.04158 0.401431,0.124918 0.606681,0.185518 1.54086,0.45508 2.995192,1.836156 3.449402,3.274736 0.30904,0.97879 0.328662,1.089719 0.328662,1.865519 0,0.91005 -0.128939,1.397123 -0.630969,2.379183 -0.1771,0.34643 -1.073496,1.535783 -1.300696,1.725993 -0.47192,0.39506 -1.224899,0.898939 -1.737879,1.162719 -0.51049,0.2625 -0.888251,0.468283 -1.999361,1.090373 -0.16744,0.09374 -0.704782,0.422862 -1.194242,0.731222 -0.48946,0.30836 -0.908409,0.560689 -0.931209,0.560689 -0.05652,0 -0.953645,0.634469 -1.312065,0.928109 -0.15967,0.1308 -0.537612,0.426724 -0.839742,0.657324 -1.39006,1.06092 -3.361112,3.194265 -4.667932,5.052405 -0.4286,0.60941 -0.779281,1.127967 -0.779281,1.151867 0,0.02393 -0.139932,0.264471 -0.311092,0.534851 -0.17115,0.27038 -0.412521,0.72244 -0.536401,1.00459 -0.40417,0.92049 -0.688914,1.434567 -0.831474,1.500167 -0.07696,0.03543 -0.245341,0.107063 -0.373621,0.159163 -0.52609,0.21377 -1.91465,0.911168 -1.94355,0.976168 -0.0171,0.0385 -0.09115,0.07028 -0.164848,0.07028 -0.07371,0 -0.300635,0.104781 -0.503845,0.233061 -0.2032,0.12828 -0.389429,0.233577 -0.413929,0.233577 -0.13886,0 -3.035102,1.921845 -3.224092,2.139405 -0.02566,0.02954 -0.193514,0.164603 -0.373104,0.299723 -0.50025,0.37638 -1.864588,1.657066 -2.477368,2.325956 -0.39779,0.43421 -1.135918,1.383609 -1.311548,1.686719 -0.057,0.09837 -0.189696,0.271469 -0.294556,0.384989 -0.10486,0.11353 -0.306128,0.416278 -0.447518,0.672828 -0.14138,0.25656 -0.301967,0.539368 -0.356567,0.627868 -0.18364,0.29745 0.05276,0.399947 0.615983,0.267167 0.34741,-0.0816 1.084576,-0.103566 2.498556,-0.07286 1.99641,0.04333 3.074585,0.14504 3.574975,0.33693 0.14445,0.05541 0.404006,0.100769 0.577226,0.100769 0.17322,0 0.340887,0.04172 0.372587,0.09302 0.03171,0.0513 0.148189,0.09353 0.258899,0.09353 0.2733,0 0.98189,0.2493 1.95957,0.68988 0.29644,0.13359 0.55806,0.242879 0.58136,0.242879 0.02326,0 0.279394,0.15743 0.569474,0.34985 0.29008,0.19241 0.679524,0.449858 0.865064,0.572058 0.45453,0.29934 1.578768,1.441531 1.985408,2.016931 0.3669,0.51917 0.824239,1.448363 0.824239,1.674833 0,0.08084 0.03805,0.219925 0.08475,0.309025 0.36276,0.69276 0.502986,3.098299 0.243396,4.173389 -0.07428,0.30787 -0.136493,0.693572 -0.138493,0.857312 -0.0018,0.16373 -0.04534,0.323828 -0.09663,0.355528 -0.0513,0.0317 -0.09302,0.1658 -0.09302,0.29766 0,0.20358 -0.319495,1.31173 -0.559655,1.94148 -0.03914,0.10262 -0.144278,0.37527 -0.233578,0.60617 -0.08925,0.2309 -0.194377,0.50406 -0.233577,0.60668 -0.07892,0.20673 -0.535957,1.38614 -0.650607,1.67897 -0.04018,0.10262 -0.145827,0.37578 -0.235127,0.60668 -0.08925,0.2309 -0.195995,0.50353 -0.237195,0.60616 -0.04118,0.10262 -0.148312,0.39663 -0.237712,0.65319 -0.08943,0.25655 -0.197495,0.50631 -0.240295,0.55501 -0.0429,0.0487 -0.07803,0.16476 -0.07803,0.25786 0,0.093 -0.03923,0.24215 -0.08733,0.33125 -0.15603,0.28888 -0.565857,1.46759 -0.565857,1.62781 0,0.0857 -0.03677,0.1786 -0.08217,0.2067 -0.04538,0.0281 -0.104008,0.1673 -0.129708,0.30903 -0.04172,0.23006 -0.128393,0.49999 -0.352433,1.09709 -0.0385,0.10262 -0.139693,0.43835 -0.224793,0.74621 -0.0851,0.30787 -0.194062,0.63282 -0.242362,0.72192 -0.0483,0.0891 -0.08785,0.25387 -0.08785,0.36638 0,0.19407 -0.04089,0.35642 -0.295589,1.17409 -0.05994,0.19242 -0.14622,0.51771 -0.19172,0.72295 -0.04549,0.20525 -0.120715,0.54148 -0.166915,0.74673 -0.04624,0.20524 -0.150093,0.66712 -0.230993,1.02629 -0.13854,0.61486 -0.202619,0.9641 -0.415479,2.2624 -0.04834,0.29504 -0.11156,0.62033 -0.14056,0.72295 -0.11357,0.40219 -0.303485,2.1063 -0.503845,4.52479 -0.05313,0.64139 -0.145889,1.71161 -0.206189,2.37866 -0.17082,1.88865 -0.05158,4.89078 0.376204,9.46919 0.08187,0.8762 0.246614,2.0644 0.336414,2.4257 0.0319,0.12827 0.09774,0.46399 0.146244,0.7462 0.19135,1.11385 0.260921,1.47106 0.408761,2.0991 0.08455,0.35918 0.175555,0.81083 0.202055,1.00356 0.02654,0.19274 0.08588,0.37364 0.131775,0.40204 0.0459,0.0284 0.0832,0.14014 0.0832,0.24805 0,0.21924 0.254949,1.15011 0.383439,1.40043 0.0457,0.0891 0.0843,0.23609 0.0863,0.32659 0.0035,0.18989 0.313277,1.1184 0.403077,1.2082 0.0332,0.0332 0.06046,0.1708 0.06046,0.30592 0,0.13512 0.0331,0.28555 0.0739,0.33435 0.04077,0.0488 0.152997,0.34067 0.249597,0.64854 0.09657,0.30786 0.210498,0.59984 0.252698,0.64854 0.0422,0.0488 0.07648,0.16476 0.07648,0.25786 0,0.16989 0.02391,0.23048 0.311092,0.80357 0.08563,0.17092 0.155547,0.37092 0.155547,0.44442 0,0.0735 0.03923,0.20649 0.08733,0.29559 0.15898,0.2943 0.565857,1.22237 0.565857,1.29087 0,0.13885 1.700887,3.60099 2.241207,4.562 0.20195,0.35918 0.396648,0.71623 0.433048,0.79323 0.03638,0.077 0.205291,0.35837 0.375171,0.62529 0.16988,0.26692 0.309025,0.50722 0.309025,0.53382 0,0.11348 1.407192,2.2868 2.216402,3.42304 0.26986,0.37891 0.56389,0.79205 0.65319,0.91829 0.30737,0.43441 0.990085,1.2634 1.066085,1.2945 0.0418,0.0171 0.07604,0.0801 0.07648,0.14004 4.5e-4,0.0599 0.137021,0.25553 0.303341,0.43512 0.16631,0.17959 0.492827,0.56201 0.725537,0.84956 1.62317,2.00568 5.333023,5.71274 7.320483,7.31531 0.30787,0.24824 0.580465,0.47743 0.606165,0.50953 0.02565,0.0321 0.214363,0.1821 0.419613,0.33332 0.20524,0.15122 0.478401,0.37195 0.606681,0.4904 0.22547,0.20818 2.793252,2.04388 3.628202,2.59364 0.22542,0.14842 0.582503,0.38677 0.793233,0.5302 0.21073,0.14343 0.466845,0.30095 0.569475,0.34985 0.22305,0.10621 0.484197,0.2735 0.711067,0.45579 0.21925,0.17618 1.180378,0.73226 1.504818,0.87075 0.14111,0.0602 0.256832,0.14232 0.256832,0.18242 0,0.04 0.0804,0.0729 0.1788,0.0729 0.09834,0 0.192707,0.0341 0.209807,0.0754 0.0171,0.0416 0.241084,0.1827 0.497644,0.31367 2.19824,1.12221 2.875556,1.45965 3.316076,1.65055 0.27969,0.12121 0.807565,0.36256 1.173055,0.5364 0.36548,0.17383 0.705827,0.31626 0.756027,0.31626 0.05019,0 0.288423,0.10479 0.529683,0.23306 0.24125,0.12828 0.500159,0.23306 0.575159,0.23306 0.07495,0 0.209073,0.0376 0.298173,0.0832 0.0891,0.0456 0.330128,0.15681 0.535368,0.24701 0.20525,0.0902 0.445751,0.1996 0.534851,0.2434 0.0891,0.0438 0.238146,0.0796 0.331246,0.0796 0.09306,0 0.209065,0.0365 0.257865,0.0806 0.04874,0.0441 0.31982,0.15488 0.60203,0.24598 0.28221,0.0911 0.597079,0.19844 0.699699,0.23874 0.10263,0.0403 0.396114,0.14343 0.652674,0.22893 0.25655,0.0855 0.539285,0.19349 0.628385,0.24029 0.0891,0.0467 0.24738,0.0853 0.3514,0.0853 0.10401,0 0.261783,0.0387 0.350883,0.0863 0.24707,0.13202 1.106692,0.37982 1.317232,0.37982 0.10278,0 0.21273,0.0422 0.24443,0.0935 0.03172,0.0513 0.144057,0.093 0.249597,0.093 0.10553,0 0.386461,0.061 0.624251,0.1354 1.02234,0.31992 2.716487,0.69821 3.440617,0.76791 0.31121,0.03 0.489893,0.0905 0.489893,0.1664 0,0.12734 -0.681865,0.69328 -2.192115,1.81849 -0.51311,0.3823 -1.074599,0.80207 -1.247469,0.93276 -0.17287,0.13069 -0.407929,0.30024 -0.522449,0.37724 -0.45429,0.30532 -0.814216,0.55551 -2.452046,1.70118 -0.93671,0.65524 -1.726649,1.19115 -1.755449,1.19115 -0.0288,0 -0.189937,0.10478 -0.358117,0.23306 -0.16818,0.12828 -0.351177,0.23357 -0.406177,0.23357 -0.05503,0 -0.114158,0.0356 -0.131258,0.0791 -0.01711,0.0435 -0.324499,0.2626 -0.683679,0.48679 -0.35918,0.22419 -0.667096,0.44039 -0.684196,0.48059 -0.01711,0.0401 -0.07464,0.0729 -0.127641,0.0729 -0.05299,0 -0.296402,0.147 -0.541052,0.32659 -0.24465,0.17959 -0.491504,0.3266 -0.548804,0.3266 -0.05721,0 -0.104387,0.0417 -0.104387,0.093 0,0.0513 -0.04442,0.0935 -0.09922,0.0935 -0.05473,0 -0.23748,0.10479 -0.40566,0.23306 -0.16818,0.12828 -0.336004,0.23306 -0.373104,0.23306 -0.03706,0 -0.204924,0.1053 -0.373104,0.23358 -0.16818,0.12828 -0.354111,0.23306 -0.413411,0.23306 -0.05931,0 -0.108004,0.0422 -0.108004,0.0935 0,0.0513 -0.04504,0.093 -0.09974,0.093 -0.05473,0 -0.236963,0.1053 -0.405143,0.23358 -0.16818,0.12828 -0.336004,0.23306 -0.373104,0.23306 -0.03707,0 -0.204924,0.10478 -0.373104,0.23306 -0.16819,0.12828 -0.35066,0.23358 -0.40566,0.23358 -0.05504,0 -0.114158,0.0356 -0.131258,0.0791 -0.0171,0.0435 -0.325016,0.2626 -0.684196,0.48679 -0.35918,0.22419 -0.667096,0.44039 -0.684196,0.48059 -0.0171,0.0401 -0.07444,0.0729 -0.12764,0.0729 -0.13181,0 -2.42306,1.53865 -2.75022,1.84691 l -0.263033,0.24805 0.513147,0.0651 c 0.28222,0.0359 1.646456,0.11534 3.031856,0.17674 1.38541,0.0614 2.538734,0.12951 2.562634,0.15141 l -5.16e-4,5.1e-4 c 0.07717,0.0705 7.795339,-0.029 10.825179,-0.13952 2.87139,-0.10474 4.33554,-0.23425 4.71134,-0.416 0.10262,-0.0496 0.270484,-0.18145 0.373104,-0.293 0.10262,-0.11155 0.522269,-0.49015 0.932759,-0.84181 0.41049,-0.35166 1.167015,-1.04272 1.681035,-1.53531 0.51403,-0.4926 1.164606,-1.10295 1.445906,-1.3565 0.2813,-0.25355 1.834126,-1.74728 3.450436,-3.31918 1.6163,-1.5719 3.121395,-3.02099 3.345015,-3.22048 0.44285,-0.39508 0.296722,-0.36469 3.325379,-0.69194 1.2363,-0.13358 2.30499,-0.28499 2.39159,-0.33849 0.0449,-0.0277 0.38576,-0.0909 0.75758,-0.14056 1.08367,-0.14484 1.74722,-0.25407 2.49493,-0.41082 1.14481,-0.24 1.51501,-0.3163 2.00608,-0.4129 0.25656,-0.0505 0.73928,-0.15989 1.07281,-0.24339 0.33352,-0.0835 0.77402,-0.18805 0.97926,-0.23255 0.91363,-0.19808 1.13968,-0.25293 1.44643,-0.34933 0.17959,-0.0565 0.5153,-0.15081 0.7462,-0.20981 0.67166,-0.17177 1.42854,-0.38907 1.66037,-0.47697 0.11786,-0.0446 0.297,-0.0816 0.39791,-0.0816 0.1009,0 0.2561,-0.0362 0.3452,-0.0806 0.24541,-0.12239 0.78665,-0.30584 1.04851,-0.35554 0.12828,-0.0243 0.31699,-0.0774 0.41961,-0.11782 0.10262,-0.0404 0.41749,-0.14579 0.6997,-0.23409 0.28221,-0.0883 0.59707,-0.19693 0.6997,-0.24133 0.10262,-0.0444 0.37578,-0.14183 0.60668,-0.21653 0.2309,-0.0747 0.54577,-0.18648 0.6997,-0.24908 0.15393,-0.0626 0.36349,-0.1461 0.46612,-0.185 0.79031,-0.29981 1.75715,-0.68056 2.23914,-0.88212 0.15394,-0.0644 0.38488,-0.15945 0.51315,-0.21135 0.12828,-0.0519 0.46481,-0.2046 0.74776,-0.33952 0.28295,-0.13491 0.55491,-0.24546 0.60461,-0.24546 0.0497,0 0.34345,-0.12217 0.65216,-0.27182 0.93243,-0.45202 1.82829,-0.84749 1.92029,-0.84749 0.0477,0 0.0868,-0.0422 0.0868,-0.0935 0,-0.15654 0.58908,-0.0906 0.88625,0.0992 0.15393,0.0983 0.34261,0.20845 0.41961,0.24495 0.077,0.0365 0.18228,0.10083 0.23358,0.14263 0.17052,0.13889 0.80031,0.5395 0.84801,0.5395 0.0258,0 0.27684,0.147 0.55759,0.32659 0.28074,0.17959 0.53256,0.3266 0.55966,0.3266 0.0271,0 0.2789,0.147 0.55965,0.32659 0.28074,0.17959 0.52737,0.3266 0.54777,0.3266 0.0204,0 0.34517,0.18178 0.72141,0.40411 0.37625,0.22233 0.93598,0.5438 1.24385,0.71468 0.30787,0.17089 0.70666,0.39368 0.88625,0.49455 0.17959,0.10087 0.62009,0.34018 0.97927,0.53226 0.35918,0.19208 0.8419,0.45387 1.0728,0.58188 0.2309,0.12801 0.79807,0.43165 1.25987,0.67438 0.4618,0.24274 0.87941,0.47925 0.92811,0.52555 0.0487,0.0462 0.14417,0.0837 0.21187,0.0837 0.0677,0 0.28927,0.1053 0.49248,0.23358 0.20321,0.12828 0.42963,0.23306 0.50333,0.23306 0.0737,0 0.14826,0.0318 0.16536,0.0703 0.0419,0.0942 1.95963,1.04955 2.10685,1.04955 0.064,0 0.11627,0.0417 0.11627,0.093 0,0.0513 0.0818,0.0935 0.18139,0.0935 0.0996,0 0.20629,0.0405 0.23719,0.0904 0.0309,0.0499 0.2118,0.15863 0.40204,0.24133 0.3926,0.17057 0.51172,0.22793 0.90537,0.43615 0.15394,0.0814 0.4271,0.21072 0.60669,0.28732 0.50327,0.21459 1.19485,0.52614 1.91254,0.86145 0.98341,0.45947 1.32358,0.60203 1.43661,0.60203 0.0564,0 0.10283,0.0422 0.10283,0.0935 0,0.0513 0.0634,0.093 0.14108,0.093 0.0777,0 0.21372,0.0377 0.30282,0.0837 0.0891,0.0461 0.35098,0.15668 0.58188,0.24598 0.2309,0.0893 0.59793,0.24081 0.81545,0.33641 0.21751,0.0956 0.42087,0.17363 0.45217,0.17363 0.0313,0 0.18919,0.0603 0.35088,0.13385 0.16169,0.0735 0.48327,0.19518 0.71417,0.27078 0.2309,0.0756 0.54576,0.18855 0.6997,0.25115 0.67886,0.27589 1.8186,0.6642 2.0991,0.7152 0.12828,0.0233 0.31699,0.0749 0.41961,0.11472 0.73793,0.286 1.32665,0.4502 1.91255,0.5333 0.17959,0.0255 0.38963,0.0722 0.46663,0.10387 0.75649,0.31124 5.02756,0.52769 6.03219,0.30593 0.43014,-0.0949 1.00125,-0.18208 2.24741,-0.34365 0.24565,-0.0318 0.39636,-0.0996 0.39636,-0.17777 0,-0.18532 -0.20376,-0.60151 -0.29456,-0.60151 -0.0431,0 -0.0785,-0.0528 -0.0785,-0.11782 0,-0.0651 -0.10479,-0.27321 -0.23306,-0.46199 -0.12828,-0.18878 -0.23306,-0.38473 -0.23306,-0.43563 0,-0.0509 -0.25231,-0.49648 -0.56018,-0.99012 -0.30786,-0.49365 -0.55965,-0.91723 -0.55965,-0.94103 0,-0.0238 -0.17829,-0.32434 -0.39636,-0.66818 -0.48563,-0.76569 -0.60438,-0.96316 -0.68678,-1.14308 -0.0353,-0.077 -0.15501,-0.26568 -0.26665,-0.41961 -0.11164,-0.15394 -0.23098,-0.34313 -0.26458,-0.42013 -0.0336,-0.077 -0.16521,-0.30739 -0.29301,-0.51263 -0.1278,-0.20525 -0.31903,-0.54148 -0.42478,-0.74673 -0.10576,-0.20524 -0.29666,-0.54097 -0.42426,-0.74621 -0.1276,-0.20525 -0.2732,-0.45703 -0.3235,-0.55965 -0.0503,-0.10263 -0.14395,-0.26834 -0.20825,-0.36794 -0.34429,-0.53375 -0.72347,-1.16861 -0.72347,-1.21181 0,-0.0271 -0.13971,-0.27067 -0.31058,-0.54105 -0.17088,-0.27038 -0.33892,-0.55449 -0.37362,-0.63149 -0.0347,-0.077 -0.16884,-0.30791 -0.29766,-0.51315 -0.12881,-0.20525 -0.27526,-0.45703 -0.32556,-0.55965 -0.0503,-0.10263 -0.14395,-0.26834 -0.20825,-0.36794 -0.33835,-0.52455 -0.72347,-1.16834 -0.72347,-1.20974 0,-0.026 -0.2935,-0.51233 -0.65268,-1.08107 -0.35918,-0.56874 -0.65319,-1.05991 -0.65319,-1.09141 0,-0.0315 -0.10479,-0.19511 -0.23306,-0.36329 -0.12828,-0.16819 -0.23358,-0.32846 -0.23358,-0.35656 0,-0.0281 -0.147,-0.28099 -0.32659,-0.56173 -0.17959,-0.28074 -0.32608,-0.53514 -0.32608,-0.56534 0,-0.0302 -0.0791,-0.16844 -0.1757,-0.30747 -0.28438,-0.4091 -1.7124,-2.7343 -1.84536,-3.00498 -0.0378,-0.077 -0.50077,-0.82356 -1.0294,-1.65882 -0.52863,-0.83526 -0.96118,-1.53841 -0.96118,-1.56321 0,-0.0248 -0.21008,-0.38025 -0.46664,-0.78962 -0.25656,-0.40936 -0.46664,-0.7868 -0.46664,-0.8387 0,-0.0519 -0.0417,-0.0941 -0.093,-0.0941 -0.0513,0 -0.0935,-0.0439 -0.0935,-0.0977 0,-0.0538 -0.13914,-0.31651 -0.30902,-0.58343 -0.16988,-0.26692 -0.33792,-0.54829 -0.37362,-0.62529 -0.0357,-0.077 -0.16945,-0.3079 -0.29714,-0.51314 -0.12768,-0.20525 -0.38084,-0.6249 -0.56276,-0.93276 -0.18191,-0.30787 -0.38128,-0.64144 -0.44338,-0.74104 -0.3106,-0.49861 -0.31033,-0.52028 -0.41703,-0.70487 -8.3278,-14.051 -8.54313,-14.52279 -13.02534,-23.76489 -0.60926,-1.19996 -3.16768,-6.52487 -3.31378,-6.73615 -0.091,-0.13168 -0.19316,-0.3023 -0.22686,-0.3793 -0.0337,-0.077 -0.11378,-0.22316 -0.17828,-0.32453 -0.39033,-0.61379 -0.72399,-1.17967 -0.72399,-1.22887 0,-0.0314 -0.147,-0.26162 -0.32659,-0.51159 -0.17959,-0.24998 -0.32608,-0.47977 -0.32608,-0.51057 0,-0.0594 -1.40142,-2.19653 -1.49242,-2.27583 -0.0294,-0.0256 -0.25977,-0.34052 -0.51159,-0.6997 -0.25182,-0.35918 -0.67012,-0.9093 -0.92966,-1.22266 -0.25954,-0.31336 -0.73337,-0.90139 -1.05317,-1.30638 -0.31981,-0.405 -0.77138,-0.94596 -1.00355,-1.20251 -0.23216,-0.25656 -0.57948,-0.66376 -0.77153,-0.90486 -0.66674,-0.83701 -4.18243,-4.24117 -5.66684,-5.487 -0.82098,-0.68902 -1.51374,-1.27751 -1.53944,-1.30741 -0.0256,-0.0299 -0.21436,-0.17796 -0.41961,-0.32918 -0.20524,-0.15122 -0.41848,-0.31664 -0.47388,-0.36794 -0.38272,-0.35441 -4.57356,-3.37264 -5.18211,-3.73207 -0.0869,-0.0513 -0.88581,-0.56016 -1.7756,-1.1312 -0.88979,-0.57105 -1.765,-1.12073 -1.94459,-1.22111 -0.17959,-0.10039 -0.53615,-0.29846 -0.79271,-0.44029 -0.25656,-0.14183 -0.53292,-0.3167 -0.61392,-0.3886 -0.081,-0.0719 -0.17929,-0.13074 -0.21859,-0.13074 -0.0393,0 -0.18316,-0.0784 -0.31936,-0.17415 -0.1362,-0.0958 -0.49932,-0.30933 -0.80719,-0.47439 -0.30786,-0.16506 -0.76973,-0.41556 -1.02629,-0.55707 -0.99222,-0.54728 -1.81319,-0.987 -2.845308,-1.52343 -0.59008,-0.30669 -1.219495,-0.64703 -1.398365,-0.75654 -0.55691,-0.34096 -0.696345,-0.42321 -0.840775,-0.49351 -0.23011,-0.11203 -2.166849,-1.35016 -2.518709,-1.61024 -2.35382,-1.73986 -3.99206,-3.514182 -5.14594,-5.572782 -0.3578,-0.63833 -0.406711,-0.737199 -0.852661,-1.721859 -0.32262,-0.71235 -0.905371,-2.434148 -0.905371,-2.675288 0,-0.10792 -0.04223,-0.222032 -0.09353,-0.253732 -0.0513,-0.03171 -0.09302,-0.178518 -0.09302,-0.326078 0,-0.14757 -0.04353,-0.382669 -0.09663,-0.522449 -0.09759,-0.25667 -0.223019,-0.924228 -0.365869,-1.950268 -0.1584,-1.13769 -0.288471,-1.872954 -0.378271,-2.136304 -0.0507,-0.14876 -0.09198,-0.429691 -0.09198,-0.624251 0,-0.19456 -0.03782,-0.376744 -0.08372,-0.405144 -0.04591,-0.02837 -0.102057,-0.209302 -0.125057,-0.402042 -0.05121,-0.4297 -0.250822,-1.22598 -0.362252,-1.44539 -0.0453,-0.0891 -0.08217,-0.229942 -0.08217,-0.312642 0,-0.19104 -0.680228,-2.224299 -0.941028,-2.812749 -0.10838,-0.24453 -0.239339,-0.549198 -0.290939,-0.677478 -0.29525,-0.73402 -0.54642,-1.266184 -0.91984,-1.947684 -0.15115,-0.27586 -0.38915,-0.716876 -0.52865,-0.979786 -0.13951,-0.26291 -0.349391,-0.608098 -0.466121,-0.766878 -0.11673,-0.15877 -0.211874,-0.337058 -0.211874,-0.396358 0,-0.05931 -0.04223,-0.107487 -0.09353,-0.107487 -0.0513,0 -0.09302,-0.03813 -0.09302,-0.08423 0,-0.11883 -1.282191,-1.977227 -1.486731,-2.154907 -0.02953,-0.02565 -0.226716,-0.277446 -0.438216,-0.559656 -0.6227,-0.83088 -2.858379,-3.04718 -3.719669,-3.68763 -0.2052,-0.15259 -0.456996,-0.353918 -0.559656,-0.447518 -0.10266,-0.09359 -0.711499,-0.519278 -1.352889,-0.945678 -1.33864,-0.88993 -2.57503,-1.54276 -4.33772,-2.2903 -1.40501,-0.59584 -3.280066,-1.119944 -4.991426,-1.395264 -0.33353,-0.05366 -0.72818,-0.139686 -0.87695,-0.190686 -0.14876,-0.051 -0.4188,-0.0925 -0.60048,-0.0925 -0.28855,0 -1.228219,-0.145347 -1.584399,-0.244947 -0.09401,-0.02628 -0.08114,-0.09546 0.05529,-0.291455 0.42122,-0.60515 1.136465,-2.300453 1.139465,-2.700093 7e-4,-0.11243 0.03735,-0.226848 0.08165,-0.254248 0.0443,-0.02737 0.129536,-0.56489 0.189136,-1.19476 0.08954,-0.94689 0.08447,-1.307056 -0.02946,-2.078426 -0.17561,-1.18899 -0.227537,-1.426184 -0.388607,-1.786454 -0.07233,-0.16168 -0.131258,-0.333906 -0.131258,-0.382406 0,-0.23076 -0.781198,-1.642073 -1.277958,-2.308903 -1.3696,-1.8385 -3.512229,-3.271522 -5.532479,-3.700032 -0.91719,-0.19451 -2.162037,-0.27801 -3.405477,-0.22841 z m 44.225724,10.516671 c -2.924214,-0.01106 -7.415773,0.138998 -7.692553,0.310058 -0.05747,0.03552 -0.513735,0.103179 -1.013375,0.150379 -0.99921,0.09442 -1.668092,0.196895 -2.727482,0.417545 -1.74459,0.36337 -3.052708,0.682452 -3.287138,0.801502 -0.0891,0.0453 -0.244815,0.08217 -0.345715,0.08217 -0.1009,0 -0.279532,0.03643 -0.397392,0.08113 -0.11787,0.04467 -0.466243,0.153663 -0.774113,0.242363 -0.30787,0.08873 -0.63282,0.199263 -0.72192,0.245463 -0.08909,0.0462 -0.229526,0.08423 -0.312126,0.08423 -0.08257,0 -0.282567,0.06866 -0.444417,0.152962 -0.55052,0.28671 -0.618078,0.313159 -0.800468,0.313159 -0.10029,0 -0.208595,0.04223 -0.240295,0.09353 -0.03171,0.0513 -0.117153,0.09302 -0.189653,0.09302 -0.07253,0 -0.352944,0.101826 -0.623734,0.225826 -0.27079,0.12401 -0.720149,0.323147 -0.998389,0.442867 -0.97378,0.419 -2.013314,0.9648 -2.013314,1.0573 0,0.10883 0.858788,0.538812 1.399398,0.700732 0.20525,0.06147 0.667114,0.249209 1.026294,0.417029 0.35917,0.16783 0.821054,0.380973 1.026294,0.473873 0.45742,0.20699 2.277957,1.352201 2.787427,1.753381 1.14272,0.89985 2.722595,2.585511 3.642155,3.885551 0.19961,0.28221 0.398433,0.527053 0.441833,0.544153 0.0434,0.0171 0.07906,0.07649 0.07906,0.132292 0,0.05582 0.05851,0.16808 0.129708,0.24908 0.07123,0.08101 0.249508,0.370185 0.396358,0.642855 0.14685,0.27267 0.386564,0.713685 0.532784,0.979785 0.37063,0.67451 0.84888,1.626621 1.03973,2.069641 0.08843,0.20524 0.277943,0.62489 0.421163,0.93276 0.14322,0.30787 0.353338,0.790592 0.466638,1.072802 0.54519,1.35797 0.621558,1.422787 1.538408,1.303797 0.8746,-0.11383 6.256382,-0.108858 7.137032,0.0062 0.38483,0.05028 1.140197,0.135653 1.678967,0.189653 1.242058,0.12459 1.920018,0.222766 2.798798,0.406176 0.38484,0.08032 0.84671,0.170705 1.0263,0.200505 0.17959,0.02983 0.41052,0.08941 0.51314,0.132808 0.10262,0.04337 0.29134,0.100624 0.41962,0.127124 0.46276,0.09553 1.07637,0.26925 1.23506,0.34985 0.0891,0.0453 0.23093,0.08268 0.31523,0.08268 0.16974,0 1.57503,0.436778 1.83038,0.568958 0.0891,0.0462 0.24439,0.08423 0.34468,0.08423 0.1003,0 0.20583,0.03838 0.23513,0.08578 0.0293,0.04737 0.18794,0.115829 0.35243,0.151929 0.16449,0.03613 0.36375,0.09762 0.44235,0.136425 0.14275,0.07042 0.3196,0.14588 0.93586,0.40101 1.37587,0.56961 2.99572,1.337653 4.05815,1.923913 0.30786,0.16989 0.72751,0.396852 0.93276,0.504362 0.20524,0.10751 0.43948,0.249526 0.52038,0.315226 0.0809,0.06566 0.33269,0.215483 0.55966,0.333313 0.41513,0.2155 1.7719,1.077307 1.8588,1.180807 0.0257,0.03054 0.17266,0.13331 0.3266,0.22841 0.25104,0.15503 1.98391,1.433552 2.09909,1.548742 0.0257,0.02565 0.24485,0.206199 0.48731,0.401009 0.24245,0.19481 0.49477,0.406139 0.56017,0.469739 0.0654,0.06362 0.41235,0.349514 0.77153,0.635104 0.73312,0.58294 3.78632,3.592625 4.43177,4.368725 0.2309,0.27764 0.56841,0.675257 0.74983,0.883667 0.18142,0.20841 0.4516,0.546642 0.60099,0.751892 0.14938,0.20524 0.298,0.39443 0.3297,0.42013 0.0707,0.05724 1.497,2.094264 1.82108,2.600874 0.0531,0.08301 0.33668,0.518357 0.62993,0.966867 0.29325,0.448492 0.53279,0.840782 0.53279,0.871782 0,0.031 0.0782,0.16766 0.17363,0.30386 0.25317,0.3616 0.78926,1.34097 1.08055,1.97352 0.0827,0.17959 0.1882,0.38964 0.2341,0.46664 0.16537,0.27722 0.75086,1.58563 0.75086,1.67793 0,0.0519 0.0422,0.0946 0.0935,0.0946 0.0513,0 0.093,0.0619 0.093,0.13746 0,0.0756 0.10929,0.38 0.24288,0.67644 0.13359,0.29645 0.28501,0.64377 0.33641,0.77205 0.0514,0.12828 0.14914,0.35921 0.21704,0.51315 0.16594,0.3764 0.69835,1.89023 0.78755,2.23914 0.0393,0.15393 0.16102,0.54081 0.27027,0.85989 0.10924,0.31908 0.19844,0.64521 0.19844,0.72451 0,0.0793 0.0369,0.21682 0.0822,0.30592 0.0996,0.19618 0.30254,0.98061 0.36174,1.39888 0.0237,0.16724 0.0805,0.32733 0.12609,0.35553 0.0456,0.0282 0.0832,0.21465 0.0832,0.41445 0,0.1998 0.0372,0.45987 0.0827,0.57774 0.95453,2.47328 1.163,18.07978 0.47819,20.87345 0.31616,0.40351 6.9842,13.24223 12.20369,22.46033 1.65552,-2.58825 3.31033,-6.08009 4.57037,-9.48727 0.0526,-0.12828 0.204,-0.47191 0.33641,-0.76377 0.13242,-0.29186 0.24081,-0.57577 0.24081,-0.63097 0,-0.0552 0.0377,-0.17342 0.0837,-0.26252 0.046,-0.0891 0.15538,-0.35046 0.24288,-0.58136 0.0875,-0.2309 0.19688,-0.49277 0.24288,-0.58187 0.046,-0.0891 0.0837,-0.2444 0.0837,-0.34469 0,-0.10029 0.0417,-0.20808 0.093,-0.23978 0.0513,-0.0317 0.0937,-0.12869 0.094,-0.21549 3.1e-4,-0.0868 0.0633,-0.27781 0.14004,-0.42478 0.0767,-0.14698 0.13901,-0.3261 0.13901,-0.3979 0,-0.0718 0.0367,-0.20339 0.0811,-0.29249 0.13127,-0.26323 0.30998,-0.79592 0.36018,-1.07281 0.0257,-0.14174 0.0838,-0.2804 0.12919,-0.3085 0.0454,-0.0281 0.083,-0.14338 0.0832,-0.2558 2.2e-4,-0.11243 0.10402,-0.49813 0.23099,-0.85731 0.12698,-0.35918 0.23207,-0.76627 0.23307,-0.90434 0.001,-0.13808 0.0394,-0.27391 0.0853,-0.30231 0.0459,-0.0284 0.10538,-0.2093 0.13178,-0.40204 0.0264,-0.19274 0.11822,-0.60215 0.20412,-0.91002 0.17124,-0.61358 0.27121,-1.0503 0.41083,-1.79576 0.0504,-0.26924 0.12003,-0.53613 0.15503,-0.59273 0.0596,-0.0964 0.11909,-0.4396 0.31367,-1.80971 0.0437,-0.30787 0.10426,-0.6227 0.13436,-0.6997 0.1003,-0.25654 0.36123,-2.27725 0.5178,-4.01164 0.0486,-0.53877 0.13255,-1.27379 0.18655,-1.63297 0.12818,-0.85291 0.1294,-8.55487 0.002,-9.42268 -0.0529,-0.35918 -0.13622,-1.11455 -0.18552,-1.67897 -0.12881,-1.47414 -0.24516,-2.40734 -0.4129,-3.31194 -0.0809,-0.43614 -0.16765,-0.93973 -0.19275,-1.11932 -0.0967,-0.69073 -0.48262,-2.6155 -0.60926,-3.03909 -0.0471,-0.15757 -0.0858,-0.39927 -0.0858,-0.53743 0,-0.13816 -0.0369,-0.32431 -0.0822,-0.41341 -0.1121,-0.2206 -0.29775,-0.9253 -0.35605,-1.35186 -0.0263,-0.19274 -0.0854,-0.37364 -0.13126,-0.40204 -0.0458,-0.0284 -0.0832,-0.13787 -0.0832,-0.2434 0,-0.19685 -0.24332,-1.02257 -0.38654,-1.31206 -0.0441,-0.0891 -0.0801,-0.26473 -0.0801,-0.39068 0,-0.12594 -0.0373,-0.25198 -0.0827,-0.28008 -0.0454,-0.0281 -0.10349,-0.1673 -0.12919,-0.30903 -0.0502,-0.27689 -0.22892,-0.80905 -0.36019,-1.07228 -0.0444,-0.0891 -0.0811,-0.22434 -0.0811,-0.30024 0,-0.12689 -0.18565,-0.6129 -0.38447,-1.00614 -0.0451,-0.0891 -0.0816,-0.22598 -0.0816,-0.30438 0,-0.0784 -0.0377,-0.21527 -0.0837,-0.30437 -0.046,-0.0891 -0.15538,-0.35097 -0.24288,-0.58188 -0.0875,-0.2309 -0.19687,-0.492774 -0.24287,-0.581874 -0.046,-0.0891 -0.0837,-0.203648 -0.0837,-0.254248 0,-0.0506 -0.1093,-0.334529 -0.24288,-0.630969 -0.13359,-0.29644 -0.27403,-0.622918 -0.31213,-0.725538 -0.0672,-0.18098 -0.23663,-0.55484 -0.82527,-1.81901 -1.08379,-2.32759 -2.19582,-4.438588 -3.08767,-5.861658 -0.26197,-0.418 -0.47645,-0.802828 -0.47645,-0.854728 0,-0.0519 -0.0422,-0.09405 -0.0935,-0.09405 -0.0513,0 -0.093,-0.0487 -0.093,-0.108004 0,-0.0593 -0.10531,-0.245231 -0.23358,-0.413411 -0.12828,-0.16818 -0.23306,-0.328984 -0.23306,-0.357084 0,-0.02808 -0.15743,-0.28813 -0.34985,-0.57826 -0.19241,-0.29013 -0.39157,-0.592276 -0.44287,-0.671276 -0.42566,-0.6551 -1.95448,-2.776263 -2.01848,-2.800863 -0.0445,-0.0171 -0.0806,-0.07594 -0.0806,-0.130741 0,-0.08925 -1.11829,-1.512529 -1.55856,-1.983859 -0.0959,-0.10262 -0.23676,-0.276786 -0.31316,-0.387056 -0.0764,-0.11028 -0.41473,-0.509071 -0.75189,-0.886251 -0.33716,-0.37718 -0.75256,-0.854127 -0.92346,-1.059367 -0.59195,-0.71094 -4.61936,-4.728465 -5.3144,-5.301485 -0.384,-0.31659 -0.84192,-0.714967 -1.01751,-0.885217 -0.17559,-0.17025 -0.46962,-0.422036 -0.65371,-0.559656 -0.18408,-0.13762 -0.46119,-0.362701 -0.61546,-0.499711 -0.28498,-0.25311 -1.47982,-1.183491 -1.95647,-1.523421 -0.1439,-0.10262 -0.43979,-0.318564 -0.65733,-0.480075 -0.21754,-0.16152 -0.48147,-0.339641 -0.58652,-0.395841 -0.10505,-0.05622 -0.24705,-0.155125 -0.31575,-0.219625 -0.21883,-0.20537 -1.84219,-1.283126 -1.93269,-1.283126 -0.0479,0 -0.10124,-0.03383 -0.11834,-0.07493 -0.0351,-0.08424 -1.65115,-1.107931 -2.03709,-1.290361 -0.077,-0.03639 -0.3611,-0.205851 -0.63148,-0.376721 -0.27038,-0.17088 -0.50674,-0.310576 -0.52504,-0.310576 -0.0183,0 -0.46871,-0.242455 -1.00097,-0.538985 -0.53225,-0.29654 -1.13576,-0.618168 -1.341,-0.714168 -0.20525,-0.09602 -0.79275,-0.373003 -1.30587,-0.615983 -1.02132,-0.48363 -1.79756,-0.827751 -2.51871,-1.116211 -0.2498,-0.09992 -0.43806,-0.17771 -1.02629,-0.42323 -0.20524,-0.08567 -0.45703,-0.187343 -0.55966,-0.226343 -0.10262,-0.03897 -0.34585,-0.139659 -0.54001,-0.223759 -0.19415,-0.08407 -0.4272,-0.152962 -0.5178,-0.152962 -0.0906,0 -0.20452,-0.03341 -0.25322,-0.07441 -0.0487,-0.04096 -0.31929,-0.149629 -0.60151,-0.241329 -0.28221,-0.09168 -0.59708,-0.200229 -0.6997,-0.241329 -0.10263,-0.04111 -0.37578,-0.12797 -0.60668,-0.19327 -0.2309,-0.06528 -0.6714,-0.202227 -0.97927,-0.303857 -0.30787,-0.10164 -0.70718,-0.218533 -0.88677,-0.259933 -0.17959,-0.04137 -0.57838,-0.143259 -0.88625,-0.226859 -0.30787,-0.08362 -0.70666,-0.188327 -0.88625,-0.232027 -1.56317,-0.38062 -1.74778,-0.41984 -3.03185,-0.65009 -0.25656,-0.04601 -0.82321,-0.154395 -1.25936,-0.240295 -1.03234,-0.2034 -1.58869,-0.276222 -4.52479,-0.593762 -0.56442,-0.06105 -1.42508,-0.154323 -1.91254,-0.207223 -0.412261,-0.04475 -1.212732,-0.06608 -2.187471,-0.06976 z m -41.77161,15.692582 c 0.50078,-0.08493 1.676939,0.27893 2.164209,0.66921 0.76787,0.61503 1.175838,1.241923 1.455208,2.237073 0.1357,0.48346 0.140848,0.639197 0.03927,1.166337 -0.10827,0.5619 -0.224714,0.906467 -0.500744,1.484147 -0.32333,0.67668 -1.594026,1.596414 -2.393136,1.732194 -1.08536,0.18441 -1.595914,0.118356 -2.454114,-0.318844 -0.75327,-0.38376 -1.651062,-1.396032 -1.651062,-1.861902 0,-0.1007 -0.04172,-0.209112 -0.09302,-0.240812 -0.053,-0.03272 -0.09354,-0.496633 -0.09354,-1.072803 0,-0.57618 0.04054,-1.040102 0.09354,-1.072802 0.0513,-0.03172 0.09302,-0.140192 0.09302,-0.240812 0,-0.45049 1.039332,-1.643025 1.774052,-2.035535 0.38391,-0.2051 0.731253,-0.303841 1.566313,-0.445451 z" /></g></svg>
